<svg xmlns="http://www.w3.org/2000/svg" xmlns:xlink="http://www.w3.org/1999/xlink" width="1962" height="98" viewBox="0 0 1962 98"><defs><filter id="a" x="13.5" y="15.5" width="1935" height="71" filterUnits="userSpaceOnUse"><feOffset dy="5" input="SourceAlpha"/><feGaussianBlur stdDeviation="2.5" result="b"/><feFlood flood-opacity="0.2"/><feComposite operator="in" in2="b"/><feComposite in="SourceGraphic"/></filter><filter id="c" x="0" y="0" width="1962" height="98" filterUnits="userSpaceOnUse"><feOffset dy="3" input="SourceAlpha"/><feGaussianBlur stdDeviation="7" result="d"/><feFlood flood-opacity="0.122"/><feComposite operator="in" in2="d"/><feComposite in="SourceGraphic"/></filter><filter id="e" x="6" y="11" width="1950" height="86" filterUnits="userSpaceOnUse"><feOffset dy="8" input="SourceAlpha"/><feGaussianBlur stdDeviation="5" result="f"/><feFlood flood-opacity="0.141"/><feComposite operator="in" in2="f"/><feComposite in="SourceGraphic"/></filter><clipPath id="g"><rect width="1920" height="56" fill="#6200ee"/></clipPath></defs><g transform="translate(21 18)"><g transform="matrix(1, 0, 0, 1, -21, -18)" filter="url(#a)" style="mix-blend-mode:multiply;isolation:isolate"><rect width="1920" height="56" transform="translate(21 18)" fill="#fff"/></g><g transform="matrix(1, 0, 0, 1, -21, -18)" filter="url(#c)" style="mix-blend-mode:multiply;isolation:isolate"><rect width="1920" height="56" transform="translate(21 18)" fill="#fff"/></g><g transform="matrix(1, 0, 0, 1, -21, -18)" filter="url(#e)" style="mix-blend-mode:multiply;isolation:isolate"><rect width="1920" height="56" transform="translate(21 18)" fill="#fff"/></g><rect width="1920" height="56" fill="#121212"/><rect width="1920" height="56" fill="rgba(255,255,255,0.12)"/><path d="M0,0H1920V56H0Z" fill="#fff"/><g clip-path="url(#g)"><g transform="translate(1194 16)"><rect width="24" height="24" fill="none"/></g></g></g></svg>