<svg xmlns="http://www.w3.org/2000/svg" width="72" height="72" viewBox="0 0 72 72"><g transform="translate(-706 -232)"><g transform="translate(706 232)"><g fill="#fff" stroke-linejoin="round"><path d="M 68.5 68.5 L 3.5 68.5 L 3.5 3.5 L 68.5 3.5 L 68.5 68.5 Z" stroke="none"/><path d="M 7 7 L 7 65 L 65 65 L 65 7 L 7 7 M 0 0 L 72 0 L 72 72 L 0 72 L 0 0 Z" stroke="none" fill="#6d96a6"/></g></g><g transform="translate(730 249)"><path d="M11.269,2A5.81,5.81,0,0,0,5.5,7.85a5.81,5.81,0,0,0,5.769,5.85H24.731A5.81,5.81,0,0,0,30.5,7.85,5.81,5.81,0,0,0,24.731,2Z" transform="translate(-5.5 -2)" fill="#6d96a6"/><path d="M18.269,9a5.851,5.851,0,1,0,5.769,5.85A5.81,5.81,0,0,0,18.269,9Z" transform="translate(0.962 4.65)" fill="#6d96a6"/><path d="M5.5,14.85A5.81,5.81,0,0,1,11.269,9h5.769V20.7H11.269A5.81,5.81,0,0,1,5.5,14.85Z" transform="translate(-5.5 4.65)" fill="#6d96a6"/><path d="M11.269,16a5.851,5.851,0,1,0,5.769,5.85V16Z" transform="translate(-5.5 11.3)" fill="#6d96a6"/></g></g></svg>