<svg xmlns="http://www.w3.org/2000/svg" width="72" height="72" viewBox="0 0 72 72"><g fill="#fff" stroke-linejoin="round"><path d="M 68.5 68.5 L 3.5 68.5 L 3.5 3.5 L 68.5 3.5 L 68.5 68.5 Z" stroke="none"/><path d="M 7 7 L 7 65 L 65 65 L 65 7 L 7 7 M 0 0 L 72 0 L 72 72 L 0 72 L 0 0 Z" stroke="none" fill="#6d96a6"/></g><path d="M-1450.448,2260.942l11.683,1.836s-2-14.354,1.669-15.856,12.351-2,12.351-2l-2.385-6.2s-13.8-1.139-12.469-5.145,4.674-4.34,7.845-4.34h7.01l.653-1.3s-.912-5.166-1.291-5.7-16.887-2.847-18.222-2.346-7.844,3.171-7.844,3.171Z" transform="translate(1474.828 -2207)" fill="none" stroke="#6d96a6" stroke-width="0.5"/><path d="M-1444.031,2220.156c-13.979,17.606,4.71,42.961,4.71,42.961s-11.7-21.176-6.989-29.761,21.423-4.938,21.423-4.938" transform="translate(1475.472 -2207.338)" fill="none" stroke="#6d96a6" stroke-width="0.5"/><path d="M-1429.271,2234.541h-11.4s-4.482,3.418.76,5.318l12.535.684" transform="translate(1477.426 -2202.75)" fill="none" stroke="#6d96a6" stroke-width="0.5"/><path d="M-1446.888,2243.756c-7.7-.9-17.826.584-17.826.584v22.6h59.7v-14.508" transform="translate(1471 -2200.187)" fill="none" stroke="#6d96a6" stroke-width="1"/><path d="M-1442,2244.134s21.089,3.24,30.718,8.632" transform="translate(1477.556 -2199.98)" fill="none" stroke="#6d96a6" stroke-width="1"/><text transform="translate(27 53)" fill="#6d96a6" font-size="10" font-family="MicrosoftSansSerif, Microsoft Sans Serif"><tspan x="-8.342" y="9">360</tspan></text></svg>