<svg xmlns="http://www.w3.org/2000/svg" width="72" height="72" viewBox="0 0 72 72"><g transform="translate(-850 -232)"><g transform="translate(144)"><g transform="translate(706 232)"><g fill="#fff" stroke-linejoin="round"><path d="M 68.5 68.5 L 3.5 68.5 L 3.5 3.5 L 68.5 3.5 L 68.5 68.5 Z" stroke="none"/><path d="M 7 7 L 7 65 L 65 65 L 65 7 L 7 7 M 0 0 L 72 0 L 72 72 L 0 72 L 0 0 Z" stroke="none" fill="#6d96a6"/></g></g></g><path d="M-1417.862,2078.086l6.337,15.91-6.337,29.8h6.337l13.618-33.033-13.618-12.674Z" transform="translate(2283 -1832)" fill="#6d96a6"/><path d="M-1418.581,2078.086l7.057,12.674-7.057,33.033h7.057l12.494-36.134-12.494-9.573Z" transform="translate(2297 -1832)" fill="#6d96a6"/><path d="M-1418.581,2078.086l7.057,9.573-7.057,36.134h7.057l12.676-38.83-12.676-6.877Z" transform="translate(2310.031 -1832)" fill="#6d96a6"/></g></svg>