<svg xmlns="http://www.w3.org/2000/svg" width="27" height="27" viewBox="0 0 27 27"><path d="M12,7a5,5,0,1,0,5,5A5,5,0,0,0,12,7ZM9,12a3,3,0,1,0,3-3A3,3,0,0,0,9,12Z" transform="translate(1.5 1.5)" fill="#6d96a6" fill-rule="evenodd"/><path d="M18,5a1,1,0,1,0,1,1A1,1,0,0,0,18,5Z" transform="translate(3 0)" fill="#6d96a6"/><path d="M5.909,1A4.909,4.909,0,0,0,1,5.909V23.091A4.909,4.909,0,0,0,5.909,28H23.091A4.909,4.909,0,0,0,28,23.091V5.909A4.909,4.909,0,0,0,23.091,1ZM23.091,3.455H5.909A2.455,2.455,0,0,0,3.455,5.909V23.091a2.455,2.455,0,0,0,2.455,2.455H23.091a2.454,2.454,0,0,0,2.455-2.455V5.909A2.455,2.455,0,0,0,23.091,3.455Z" transform="translate(-1 -1)" fill="#6d96a6" fill-rule="evenodd"/></svg>