<svg xmlns="http://www.w3.org/2000/svg" width="32" height="32" viewBox="0 0 32 32"><path d="M22.23,23.93H1.77A1.78,1.78,0,0,1,0,22.2V1.73A1.771,1.771,0,0,1,1.78,0H22.22A1.772,1.772,0,0,1,24,1.73V22.2A1.781,1.781,0,0,1,22.23,23.93ZM3.59,9V20.41H7.11V9Zm11.55,2.7C17,11.7,17,13.4,17,14.76v5.58h3.48V14.09a7.181,7.181,0,0,0-.784-3.869A3.747,3.747,0,0,0,16.22,8.64c-.055,0-.112,0-.167,0A3.727,3.727,0,0,0,12.83,10.5h-.07V9H9.44V20.28H13V14.63C13,13.181,13.254,11.7,15.14,11.7ZM5.39,7.407V7.45a2.07,2.07,0,0,0,0-4.13H5.319a2,2,0,0,0-2,2.071A2.082,2.082,0,0,0,5.388,7.41Z" transform="translate(4 4)" fill="#6d96a6"/></svg>