<svg xmlns="http://www.w3.org/2000/svg" width="72" height="72" viewBox="0 0 72 72"><g transform="translate(-706 -366)"><g transform="translate(706 366)"><g fill="#fff" stroke-linejoin="round"><path d="M 68.5 68.5 L 3.5 68.5 L 3.5 3.5 L 68.5 3.5 L 68.5 68.5 Z" stroke="none"/><path d="M 7 7 L 7 65 L 65 65 L 65 7 L 7 7 M 0 0 L 72 0 L 72 72 L 0 72 L 0 0 Z" stroke="none" fill="#6d96a6"/></g></g><g transform="translate(722.505 382.505)"><path d="M-1339.024,2076.431l1.684,24.989,17.811,9.393,17.722-9.393,1.772-25.521-19.495-4.076Z" transform="translate(1339.024 -2071.823)" fill="none" stroke="#6d96a6" stroke-width="1"/><path d="M-1299.993,2077.95l-19.792,5.76-19.029-5.069" transform="translate(1338.957 -2073.758)" fill="none" stroke="#6d96a6" stroke-width="1"/><path d="M-1311,2086.369v29.03" transform="translate(1330.172 -2076.417)" fill="none" stroke="#6d96a6" stroke-width="1"/><path d="M-1326.219,2094.887c-.04-.121,4.235,1.533,4.235,1.533s-.121-4.154-3.106-6.292-6.171-3.186-7.784-2.178-1.654,4.638-1.049,5.566a13.538,13.538,0,0,0,4.195,4.638c2.581,1.734,4.437,3.549,3.509,5.042-.666,1.072-3.984-.431-4.033-3.146,0-1.008-.265-.8-.242-.807.081-.04-4.4-1.411-4.4-1.411s.323,4.8,3.469,7.219,7.179,3.832,9.035,1.573,1.25-3.67.4-6.252-4.961-5.042-5.969-5.848-3.105-2.5-1.371-2.9S-1326.178,2095.008-1326.219,2094.887Z" transform="translate(1337.718 -2076.794)" fill="#6d96a6"/><path d="M-1307.247,2092.063l3.408-1.311,1.1,8.6,1.625-9.6,3.3-1.363,1.625,8.075,1-9.019,3.356-1.311-2.464,16.254-3.513,1.521-1.678-8.861-1.625,11.011-3.618,1.468Z" transform="translate(1328.987 -2076.344)" fill="#6d96a6"/></g></g></svg>